<svg width="51.0952" height="46.5927" viewBox="0 0 51.0952 46.5927" fill="none" xmlns="http://www.w3.org/2000/svg">
<path fill-rule="evenodd" clip-rule="evenodd" d="M17.7719 11.1419L6.66429 22.2836L17.7719 32.4124C18.6583 33.2207 19.8507 34.4382 21.1042 34.4382H37.7657C40.376 34.4382 42.2088 31.754 42.2088 29.3738V14.1805C42.2088 11.8003 40.376 10.129 37.7657 10.129H21.1042C19.8507 10.129 18.6583 10.3337 17.7719 11.1419Z" fill="white" fill-opacity="0.12"/>
<path d="M23.3258 18.232C22.8644 17.8112 22.8644 16.627 23.3258 16.2062C23.7873 15.7854 23.9752 15.7854 24.4365 16.2062L28.8796 20.2577L32.2119 16.2062C32.6732 15.7854 33.9719 15.7854 34.4334 16.2062C34.8948 16.6269 34.8948 17.8112 34.4334 18.232L29.9903 21.2706L34.4334 25.3222C34.8948 25.7429 34.8948 25.9143 34.4334 26.335C33.9719 26.7558 32.6732 26.7558 32.2119 26.335L28.8796 23.2964L24.4365 26.335C23.9752 26.7558 23.7871 26.7558 23.3258 26.335C22.8642 25.9143 22.8642 25.7429 23.3258 25.3222L26.658 21.2706L23.3258 18.232Z" fill="white" fill-opacity="0.32"/>
</svg>
